<svg xmlns="http://www.w3.org/2000/svg" version="1.1" xmlns:xlink="http://www.w3.org/1999/xlink" xmlns:svgjs="http://svgjs.dev/svgjs" width="100%" height="100%" viewBox="0 0 1000 600"><rect width="1000" height="600" x="0" y="0" fill="white"/><g><circle r="166.66666666666666" cx="375.67170206705725" cy="397.89388409798835" fill="whitesmoke" transform="matrix(0.5980718024914596,0,0,0.5980718024914596,0,62.0308829987807)"/><path d="M301.29159728026184 434.48059699661434L301.29159728026184 434.48059699661434Q300.0296046603356 434.48059699661434 300.0296046603356 433.04148260547043L300.0296046603356 433.04148260547043Q300.0296046603356 432.7315195058394 300.09602532454227 432.3329955205996Q300.1845862101511 431.9344715353597 300.33956775996666 431.447386664511L300.33956775996666 431.447386664511Q301.4687190514795 427.1521837124815 306.1624459887489 418.7831800224446Q310.8561729260183 410.4141763324077 317.2325566898559 400.53963758702025L317.2325566898559 400.53963758702025Q310.8561729260183 398.9455416460608 306.7159515238043 395.757349764142L306.7159515238043 395.757349764142Q301.93366370092605 391.927091461559 301.93366370092605 387.14480363868074L301.93366370092605 387.14480363868074Q301.93366370092605 383.46952688591324 304.81189248321385 380.9234014246586L304.81189248321385 380.9234014246586Q305.45395890387806 380.2813350039944 305.9189035533246 380.2813350039944L305.9189035533246 380.2813350039944Q306.2510068743578 380.2813350039944 306.2510068743578 380.7684198748431L306.2510068743578 380.7684198748431Q306.2510068743578 381.7204493951383 305.45395890387806 382.517497365618L305.45395890387806 382.517497365618Q304.32480761236513 384.11159330657745 304.32480761236513 386.34775566820105L304.32480761236513 386.34775566820105Q304.32480761236513 388.25181470879147 305.21041646845373 390.17801397078404Q306.07388510314007 392.08207301137446 308.1550659149482 393.6761689523339L308.1550659149482 393.6761689523339Q312.62739063819544 397.17432393388367 318.8266526308154 398.1484936755811L318.8266526308154 398.1484936755811Q324.89307329502196 389.04886267927117 331.3580179444685 380.03779256857007Q337.80082237251276 371.04886267927117 343.623700601295 363.5433276239206Q349.4465788300773 356.05993278997227 353.43181868247586 351.5211874025184Q357.4170585348744 346.9603017936623 358.5240696049851 346.9603017936623L358.5240696049851 346.9603017936623Q359.653220896498 346.9603017936623 360.27314709576 348.15587374938184Q360.91521351642416 349.3514457051014 360.91521351642416 350.3256154467988L360.91521351642416 350.3256154467988Q360.91521351642416 350.3256154467988 357.5720400846899 354.53225751321946Q354.22886665295556 358.7610398010424 348.8045124094131 365.7794899855442Q343.3801581658707 372.79794017004605 337.00377440203306 381.4104862955073Q330.6273906381954 390.00089219956635 324.4059884241733 398.9455416460608L324.4059884241733 398.9455416460608Q332.86355299981903 399.4104862955073 342.583110195391 397.5064272549169Q352.30266739096294 395.5802279929243 361.80082237251276 392.3920361110055Q371.2768371326604 389.20384422908666 379.18089617325074 385.55070769772135Q387.0628149924389 381.8754309449538 391.6901212655017 378.8422206128505L391.6901212655017 378.8422206128505Q401.40967846107367 372.3108552991973 405.9484238485275 365.38096600030434Q410.4871692359814 358.45107670141135 410.4871692359814 352.38465603720476L410.4871692359814 352.38465603720476Q410.4871692359814 344.5691578822232 403.5572799370884 339.476906959714Q396.6273906381954 334.38465603720476 383.71964156070464 334.38465603720476L383.71964156070464 334.38465603720476Q380.0443648079371 334.38465603720476 375.7491618559076 334.84960068665123L375.7491618559076 334.84960068665123Q368.88569322122123 335.6466486571309 360.27314709576 337.57284791912355Q351.682741191701 339.476906959714 343.0701950662397 342.26657485639294Q334.4576489407784 345.0562427530719 327.2842172064611 348.24443463499074Q320.1107854721438 351.4326265169095 315.97056406992976 354.93078149845934L315.97056406992976 354.93078149845934Q313.24731683745745 357.01196231026745 314.2214865791548 358.60605825122684L314.2214865791548 358.60605825122684Q314.5314496787858 359.09314312207556 314.5314496787858 359.5580877715221L314.5314496787858 359.5580877715221Q314.5314496787858 359.89019109255526 314.0443648079371 359.8016302069464Q313.5794201584906 359.71306932133757 313.0923352876419 359.4031062217066L313.0923352876419 359.4031062217066Q310.5462098263873 357.8090102807472 309.2620769850589 355.26288481949257Q308.0000843651327 352.71675935823794 308.0000843651327 350.6355785464298L308.0000843651327 350.6355785464298Q308.0000843651327 349.83853057595013 308.243626800557 349.1964641552859Q308.46502901457916 348.5543977346217 308.6421507857969 348.08945308517525L308.6421507857969 348.08945308517525Q311.83034266771574 343.61712836192794 319.40229838727294 339.5654678453228Q326.97425410683013 335.49166710731544 337.0923352876419 332.1484936755811Q347.21041646845373 328.80532024384684 358.2141065053541 326.48059699661434Q369.21779654225446 324.17801397078404 379.0923352876419 323.22598445048885L379.0923352876419 323.22598445048885Q380.9963943282323 323.04886267927117 382.8340327046161 322.9824420150645Q384.67167108099983 322.8938811294556 386.2657670219593 322.8938811294556L386.2657670219593 322.8938811294556Q402.84879285221757 322.8938811294556 410.57573012159025 329.82377042834867Q418.30266739096294 336.77579994864385 418.30266739096294 346.65033869403135L418.30266739096294 346.65033869403135Q418.30266739096294 355.72782946893903 411.85986296291867 365.6245084357287Q405.39491831347215 375.49904718111617 393.1292356566456 382.67247891543354L393.1292356566456 382.67247891543354Q388.16982606254965 385.55070769772135 380.68643122860135 388.8053202438468Q373.20303639465294 392.08207301137446 364.25838694815855 395.0267224578689Q355.33587772306623 397.9713719043634 346.10340539834306 399.89757116635604Q336.84879285221757 401.8016302069464 328.39122827657184 401.8016302069464L328.39122827657184 401.8016302069464Q326.7971323356124 401.8016302069464 325.3801581658707 401.73520954273977Q323.9410437747268 401.6466486571309 322.5019293835829 401.49166710731544L322.5019293835829 401.49166710731544Q316.43550871937623 410.2591947825922 311.58680023229135 418.29609515159586Q306.7159515238043 426.3551357420018 304.4797891621806 431.9344715353597L304.4797891621806 431.9344715353597Q304.16982606254965 433.04148260547043 303.1292356566456 433.7721099117435Q302.08864525074154 434.48059699661434 301.29159728026184 434.48059699661434ZM374.31004746476367 472.8938811294556L374.31004746476367 472.8938811294556Q364.5904902691917 472.8938811294556 358.2141065053541 470.6798589892343Q351.8377227415165 468.4436966276106 348.0074644389334 464.6134383250276L348.0074644389334 464.6134383250276Q345.4613389776788 461.9123313139575 343.2251766160552 457.52856747631915Q340.9890142544316 453.14480363868074 340.9890142544316 450.11159330657745L340.9890142544316 450.11159330657745Q340.9890142544316 448.9824420150645 341.47609912528026 448.9824420150645L341.47609912528026 448.9824420150645Q342.583110195391 448.9824420150645 342.91521351642416 450.26657485639294L342.91521351642416 450.26657485639294Q342.91521351642416 450.7536597272416 343.93366370092605 453.94185160916044Q344.97425410683013 457.1300434910793 347.69750133930245 460.93816157226007Q350.39860835037257 464.7684198748431 355.66798104409946 467.6466486571309Q360.91521351642416 470.50273721801653 369.37277809206995 470.50273721801653L369.37277809206995 470.50273721801653Q379.40229838727294 470.50273721801653 387.37277809206995 465.8090102807472Q395.34325779686696 461.1152833434778 401.653220896498 453.5433276239206Q407.9410437747268 445.9713719043634 413.21041646845373 437.02672245786897Q418.4576489407784 428.1042132327767 423.23993676365666 419.49166710731544Q428.0222245865349 410.9012612032564 432.98163418063086 404.34775566820105L432.98163418063086 404.34775566820105Q430.9004533688227 406.58391802982464 427.80082237251276 409.8606707973523Q424.67905115480056 413.1152833434778 421.18089617325074 416.48059699661434Q417.66060097029873 419.82377042834867 414.4724090883799 422.5248774394188Q411.2842172064611 425.2481246718911 409.2251766160552 426.5101172918173L409.2251766160552 426.5101172918173Q405.7048814131032 428.5912981036254 402.6052504167932 429.5433276239206Q399.50561942048324 430.4953571442158 396.9373537378264 430.4953571442158L396.9373537378264 430.4953571442158Q392.0000843651327 430.4953571442158 389.2989773540626 427.39572614790586Q386.57573012159025 424.27395493019367 386.57573012159025 419.33668555749995L386.57573012159025 419.33668555749995Q386.57573012159025 414.7093792844372 389.05543491863824 409.1300434910793Q391.53513971568617 403.55070769772135 396.9373537378264 397.81639035454793L396.9373537378264 397.81639035454793Q402.51668953118434 391.7721099117435 410.8192725570146 388.0082722733671Q419.09971536144263 384.26657485639294 426.6052504167932 384.26657485639294L426.6052504167932 384.26657485639294Q429.3063574278633 384.26657485639294 431.85248288911794 384.8200803914483Q434.39860835037257 385.39572614790586 436.4797891621806 386.657718767832L436.4797891621806 386.657718767832Q439.3580179444685 388.40679625860696 440.70857145000355 389.9344715353597Q442.05912495553855 391.44000659071025 442.70119137620276 393.52118740251836L442.70119137620276 393.52118740251836Q443.653220896498 393.52118740251836 445.7344017083061 394.38465603720476Q447.793442298712 395.2702648932933 449.54251978948696 396.4658368490128Q451.31373750166404 397.6614088047324 451.31373750166404 398.9455416460608L451.31373750166404 398.9455416460608Q451.31373750166404 399.5654678453228 450.0296046603356 400.3625158158025L450.0296046603356 400.3625158158025Q446.84141277841684 401.95661175676196 442.8561729260183 407.9344715353597Q438.87093307361977 413.9123313139575 434.0000843651327 422.1263534541789Q429.1513758780478 430.3403755944003 423.17351609945 439.1964641552859Q417.19565632085227 448.0304124947693 409.8672430367194 455.6909290999354Q402.51668953118434 463.32930548369916 393.682741191701 468.11159330657745Q384.8266526308153 472.8938811294556 374.31004746476367 472.8938811294556ZM401.40967846107367 426.3551357420018L401.40967846107367 426.3551357420018Q404.59787034299245 426.3551357420018 409.2251766160552 423.16694386008294L409.2251766160552 423.16694386008294Q412.723331597605 420.77579994864385 416.86355299981903 417.1890840814852Q421.02591462343526 413.6023682143265 425.0111544758338 409.617128361928Q428.9963943282323 405.63188850952946 431.85248288911794 402.28871507779513L431.85248288911794 402.28871507779513Q437.1218555828449 396.22229441358854 437.1218555828449 392.3920361110055L437.1218555828449 392.3920361110055Q437.1218555828449 389.20384422908666 433.29159728026184 389.20384422908666L433.29159728026184 389.20384422908666Q429.4613389776788 389.20384422908666 422.7749921142102 392.87912098185416L422.7749921142102 392.87912098185416Q418.94473381162715 394.96030179366227 414.64953085959763 398.7684198748431Q410.33218768616587 402.5986781774261 406.5904902691917 407.07100290067336Q402.84879285221757 411.52118740251836 400.6126304905939 415.3514457051014L400.6126304905939 415.3514457051014Q398.06650502933934 419.97875197816415 398.06650502933934 422.85698076045196L398.06650502933934 422.85698076045196Q398.06650502933934 426.3551357420018 401.40967846107367 426.3551357420018Z " fill="black" transform="matrix(0.5980718024914596,0,0,0.5980718024914596,0,62.0308829987807)"/><path d="M626.9694858761607 437.64798419757295L626.9694858761607 437.64798419757295Q625.6716716144037 437.64798419757295 625.6716716144037 436.16802056574477L625.6716716144037 436.16802056574477Q625.6716716144037 435.8492591681202 625.7399776281804 435.43942308546013Q625.8310523132159 435.0295870028 625.9904330120282 434.5286762351043L625.9904330120282 434.5286762351043Q627.1516352462319 430.11155401087865 631.9785935531177 421.5049962750162Q636.8055518600036 412.89843853915374 643.3629291825653 402.7436111576865L643.3629291825653 402.7436111576865Q636.8055518600036 401.104266827046 632.54781033459 397.8255781657651L632.54781033459 397.8255781657651Q627.6297773426686 393.88659803797617 627.6297773426686 388.9685650460548L627.6297773426686 388.9685650460548Q627.6297773426686 385.18896561707817 630.5897046063251 382.5705684223052L630.5897046063251 382.5705684223052Q631.249996072833 381.91027695579726 631.7281381692699 381.91027695579726L631.7281381692699 381.91027695579726Q632.0696682381533 381.91027695579726 632.0696682381533 382.41118772349296L632.0696682381533 382.41118772349296Q632.0696682381533 383.39024058762544 631.249996072833 384.2099127529457L631.249996072833 384.2099127529457Q630.0887938386294 385.8492570835861 630.0887938386294 388.14889288073454L630.0887938386294 388.14889288073454Q630.0887938386294 390.10699860899956 630.9995406889852 392.08787300852345Q631.8875188680821 394.04597873678847 634.0277739664182 395.6853230674289L634.0277739664182 395.6853230674289Q638.627045560715 399.28277312633435 645.0022735132059 400.28459466172575L645.0022735132059 400.28459466172575Q651.2408894381431 390.9266707743198 657.8893414457406 381.6598215719494Q664.5150247820791 372.4157410408379 670.5031853231685 364.69716148407235Q676.491345864258 357.00135059856575 680.5897066908592 352.3337729904922Q684.6880675174604 347.6434267111598 685.826501080405 347.6434267111598L685.826501080405 347.6434267111598Q686.9877033146088 347.6434267111598 687.6252261098577 348.87293495914014Q688.2855175763658 350.1024432071205 688.2855175763658 351.1042647425119L688.2855175763658 351.1042647425119Q688.2855175763658 351.1042647425119 684.8474482162726 355.43031228170196Q681.4093788561794 359.779128492151 675.83105439775 366.9967972812208Q670.2527299393207 374.21446607029065 663.6953526167588 383.0714791900009Q657.1379752941971 391.9057236384523 650.7399786704475 401.104266827046L650.7399786704475 401.104266827046Q659.4376110913454 401.5824089234828 669.4330577740004 399.6243031952178Q679.4285044566554 397.6434287956939 689.1962644267217 394.36474013441295Q698.9412557255288 391.08605147313204 707.0696713649545 387.3292207154143Q715.1753183331211 383.5496212864377 719.9339706262303 380.430313323969L719.9339706262303 380.430313323969Q729.9294173088854 373.71355530259495 734.5969949169589 366.5869611985607Q739.2645725250325 359.4603670945265 739.2645725250325 353.22175116958914L739.2645725250325 353.22175116958914Q739.2645725250325 345.1844102151991 732.1379784209981 339.9476158256532Q725.0113843169639 334.71082143610727 711.737248973028 334.71082143610727L711.737248973028 334.71082143610727Q707.9576495440514 334.71082143610727 703.5405273198256 335.18896353254405L703.5405273198256 335.18896353254405Q696.4822392295681 336.0086356978643 687.6252261098577 337.9895100973882Q678.7909816614065 339.9476158256532 669.9339685416962 342.816468404274Q661.0769554219859 345.6853209828948 653.6999059341038 348.9640096441757Q646.3228564462217 352.24269830545666 642.0651149208084 355.8401483643621L642.0651149208084 355.8401483643621Q639.2645683559642 357.9804034626983 640.2663898913556 359.6197477933387L640.2663898913556 359.6197477933387Q640.5851512889801 360.1206585610344 640.5851512889801 360.5988006574712L640.5851512889801 360.5988006574712Q640.5851512889801 360.94033072635466 640.0842405212844 360.84925604131905Q639.6060984248477 360.7581813562835 639.1051876571519 360.43941995865896L639.1051876571519 360.43941995865896Q636.486790462379 358.8000756280185 635.166207529363 356.18167843324557Q633.868393267606 353.56328123847254 633.868393267606 351.4230261401364L633.868393267606 351.4230261401364Q633.868393267606 350.6033539748162 634.1188486514538 349.94306250830823Q634.3465353640428 349.2827710418003 634.528684734114 348.80462894536345L634.528684734114 348.80462894536345Q637.807373395395 344.2053573510666 645.5942589659371 340.03869051068875Q653.3811445364793 335.849254999052 663.7864273017944 332.41118563895884Q674.1917100671096 328.97311627886563 685.5077396827805 326.58240579668166Q696.8237692984516 324.21446398575654 706.9785966799188 323.235411121624L706.9785966799188 323.235411121624Q708.9367024081839 323.05326175155284 710.8265021226722 322.98495573777615Q712.7163018371605 322.8938810527406 714.3556461678008 322.8938810527406L714.3556461678008 322.8938810527406Q731.4093809407135 322.8938810527406 739.355647210068 330.0204751567748Q747.3019134794224 337.16983793206794 747.3019134794224 347.32466531353526L747.3019134794224 347.32466531353526Q747.3019134794224 356.65982052968235 740.6762301430839 366.83741658240854Q734.0277781354864 376.99224396387586 721.4139342580585 384.3692934517579L721.4139342580585 384.3692934517579Q716.3137518960659 387.3292207154143 708.6179410105593 390.67621539047195Q700.9221301250527 394.04597873678847 691.723586936459 397.07421201422153Q682.5478124191242 400.1024452916546 673.0532765041648 402.0833196911785Q663.5359719179467 404.0414254194435 654.8383394970485 404.0414254194435L654.8383394970485 404.0414254194435Q653.1989951664082 404.0414254194435 651.7418002058388 403.9731194056668Q650.2618365740107 403.8820447206312 648.7818729421824 403.72266402181896L648.7818729421824 403.72266402181896Q642.5432570172451 412.7390578403415 637.556918011547 421.0040855073205Q632.54781033459 429.2918818455584 630.2481745374416 435.0295870028L630.2481745374416 435.0295870028Q629.9294131398171 436.16802056574477 628.859285590649 436.9193867172883Q627.789158041481 437.64798419757295 626.9694858761607 437.64798419757295ZM752.0605657725316 433.5496233709718L752.0605657725316 433.5496233709718Q747.9622049459304 433.5496233709718 745.5942631350053 431.2499875738234Q743.2035526528213 428.97312044793387 743.2035526528213 425.03414032014496L743.2035526528213 425.03414032014496Q743.2035526528213 422.5751238241843 744.3647548870249 419.4558158617156Q745.5031884499697 416.33650789924695 747.9622049459304 413.05781923796604L747.9622049459304 413.05781923796604Q751.741804374907 407.9804055472324 755.1798737350002 404.13250010447905Q758.6179430950934 400.28459466172575 760.2572874257339 397.1652866992571L760.2572874257339 397.1652866992571Q761.8966317563743 394.2053594356007 761.8966317563743 392.56601510496023L761.8966317563743 392.56601510496023Q761.8966317563743 390.10699860899956 758.9367044927179 390.10699860899956L758.9367044927179 390.10699860899956Q756.318307297945 390.10699860899956 751.4913489910592 392.9758511876204Q746.6416220129145 395.8447037662412 741.4048276233685 402.2427003899908L741.4048276233685 402.2427003899908Q738.4449003597122 405.8401504488962 734.6880696019945 410.6898774270409Q730.9084701730178 415.5168357339267 728.6088343758694 419.61519656052786L728.6088343758694 419.61519656052786Q727.629781511737 421.41392158998065 726.74180333264 423.3037213044689Q725.8310564822841 425.19352101895726 724.0323314528314 429.61064324318295L724.0323314528314 429.61064324318295Q723.5314206851358 430.7718454773866 721.3228595730229 432.0696597391436Q719.11429846091 433.39024267215956 717.7937155278942 433.39024267215956L717.7937155278942 433.39024267215956Q716.8146626637616 433.39024267215956 716.8146626637616 432.5705705068393L716.8146626637616 432.5705705068393Q716.8146626637616 431.9102790403314 717.3155734314573 430.93122617619883L717.3155734314573 430.93122617619883Q718.1352455967776 429.4512625443707 721.0040981753983 421.59607096005175Q723.8729507540191 413.718110704474 728.2900729782449 403.06237255531096L728.2900729782449 403.06237255531096Q725.8310564822841 405.680769750084 722.8711292186277 408.70900302751704Q719.9339706262303 411.760004976209 716.3137518960659 414.5377828697942L716.3137518960659 414.5377828697942Q715.6762291008168 415.19807433630217 714.8565569354967 415.19807433630217L714.8565569354967 415.19807433630217Q713.8547354001053 415.19807433630217 713.8547354001053 414.378402170982L713.8547354001053 414.378402170982Q713.8547354001053 413.718110704474 715.3346990319335 412.57967714152926L715.3346990319335 412.57967714152926Q719.11429846091 409.3009884802483 722.8711292186277 405.6124637363073Q726.6507286476044 401.92393899236623 731.06785087183 396.3456145339369L731.06785087183 396.3456145339369Q732.5478145036583 392.7253958037725 736.327413932635 385.9403317686217Q740.0842446903526 379.132499062212 745.3438077511574 370.77639671019745Q750.5806021407034 362.3975256869239 756.978598764453 354.0414233349094Q763.3765953882025 345.6853209828948 770.0933534095767 339.12794366033296L770.0933534095767 339.12794366033296Q776.1498199644428 333.230857804279 782.7982719720402 330.1115498418104Q789.4467239796377 326.99224187934175 794.8428990679959 326.99224187934175L794.8428990679959 326.99224187934175Q799.601551361105 326.99224187934175 802.5614786247614 329.2918776764902Q805.4986372171588 331.5915134736386 805.4986372171588 336.66892716437223L805.4986372171588 336.66892716437223Q805.4986372171588 341.7463408551059 802.7208593235737 347.48404601234756Q799.9203127587296 353.22175116958914 796.8237734675197 356.65982052968235L796.8237734675197 356.65982052968235Q789.7654853772622 364.5377807852601 780.1798747772673 371.095158107822Q770.5942641772724 377.6525354303838 760.0979067269216 382.25180702468066L760.0979067269216 382.25180702468066Q759.7563766580382 382.41118772349296 759.4376152604136 382.47949373726965Q759.1188538627891 382.5705684223052 758.7773237939057 382.5705684223052L758.7773237939057 382.5705684223052Q757.6388902309609 382.5705684223052 757.6388902309609 381.75089625698496L757.6388902309609 381.75089625698496Q757.6388902309609 380.7718433928525 759.4376152604136 380.11155192634453L759.4376152604136 380.11155192634453Q765.676231185351 377.33377403275927 772.1425338228772 373.2354132061581Q778.6088364604035 369.13705237955696 784.1871609188329 364.37840008644787Q789.7654853772622 359.6197477933387 793.5450848062388 354.8610955002296L793.5450848062388 354.8610955002296Q797.9622070304645 349.2827710418003 799.2827899634805 345.7763956679304Q800.5806042252375 342.2472516228016 800.5806042252375 339.7882351268409L800.5806042252375 339.7882351268409Q800.5806042252375 336.50954646556 796.983154166332 336.50954646556L796.983154166332 336.50954646556Q795.3438098356916 336.50954646556 792.224501873223 338.05781611116487Q789.1051939107542 339.6288544280286 784.8474523853408 343.0669237881218L784.8474523853408 343.0669237881218Q778.290075062779 348.30371817766775 771.322861657557 355.8401483643621Q764.3556482523351 363.3993472223153 757.7071962447376 372.2335916707667Q751.0815129083991 381.090604790477 745.1844270523452 390.2663793078118Q739.2645725250325 399.4649224964055 734.5286889031822 408.13978624604465L734.5286889031822 408.13978624604465Q736.4867946314472 405.3620083524594 738.6270497297834 402.4931557738386Q740.7445361568606 399.6243031952178 742.8847912551968 397.3246673980693L742.8847912551968 397.3246673980693Q747.8028242471181 391.9057236384523 752.5614765402273 389.4467071424916Q757.2973601620774 386.9876906465309 761.0769595910541 386.9876906465309L761.0769595910541 386.9876906465309Q765.3347011164675 386.9876906465309 767.9530983112405 389.53778182752717Q770.5942641772724 392.08787300852345 770.5942641772724 396.3456145339369L770.5942641772724 396.3456145339369Q770.5942641772724 398.6452503310853 769.8428980257288 400.85381144319814Q769.1143005454442 403.06237255531096 768.1352476813116 404.8610975847637L768.1352476813116 404.8610975847637Q766.8146647482957 407.6616441496078 764.6744096499596 411.41847490732556Q762.5569232228822 415.19807433630217 760.5760488233584 418.47676299758314L760.5760488233584 418.47676299758314Q756.8192180656407 424.53322955244926 756.8192180656407 427.1516267472222L756.8192180656407 427.1516267472222Q756.8192180656407 428.6315903790504 758.1170323273977 428.6315903790504L758.1170323273977 428.6315903790504Q759.7563766580382 428.6315903790504 763.5359760870148 426.331954581902L763.5359760870148 426.331954581902Q766.4959033506713 424.53322955244926 770.1844280946123 421.66437697382844Q773.8729528385533 418.7955243952077 777.5614775824944 415.676216432739Q781.2500023264354 412.57967714152926 783.936705534985 410.1889666593452Q786.6461774147936 407.8210248484201 787.4658495801139 407.00135268309987L787.4658495801139 407.00135268309987Q788.4449024442463 406.0222998189674 788.945813211942 406.0222998189674L788.945813211942 406.0222998189674Q789.4467239796377 406.0222998189674 789.4467239796377 406.50044191540417L789.4467239796377 406.50044191540417Q789.4467239796377 407.3201140807244 788.285521745434 408.8000777125526L788.285521745434 408.8000777125526Q784.0277802200206 413.2171999367783 777.6297835962711 418.7955243952077Q771.2317869725214 424.373848853637 763.2172146893903 429.61064324318295L763.2172146893903 429.61064324318295Q760.0979067269216 431.7508983415191 757.2290541483009 432.66164519187487Q754.3602015696799 433.5496233709718 752.0605657725316 433.5496233709718ZM791.7235911055272 433.5496233709718L791.7235911055272 433.5496233709718Q786.6461774147936 433.5496233709718 783.8683995212083 430.36200939472644Q781.0678529563642 427.1516267472222 781.0678529563642 422.0742130564886L781.0678529563642 422.0742130564886Q781.0678529563642 417.31556076337944 783.6179441373605 411.57785560613786Q786.1680353183567 405.8401504488962 791.7235911055272 399.94306459284235L791.7235911055272 399.94306459284235Q797.4612962627689 393.72721733916393 805.9995479848545 389.8565432251517Q814.5150310356814 386.0086377823984 822.2336105924469 386.0086377823984L822.2336105924469 386.0086377823984Q828.4494578461254 386.0086377823984 832.88934874161 388.7181096622069Q837.3064709658356 391.4275815420155 838.7864345976639 395.52594236861665L838.7864345976639 395.52594236861665Q840.5851596271166 395.52594236861665 843.2946315069252 396.50499523274914Q846.0041033867337 397.4840480968817 846.0041033867337 400.1024452916546L846.0041033867337 400.1024452916546Q846.0041033867337 401.92393899236623 844.182609686022 404.20080611825574L844.182609686022 404.20080611825574Q843.0441761230772 405.8401504488962 840.1753235444564 409.1188391101772Q837.3064709658356 412.39752777145804 834.847454469875 416.1771272004347L834.847454469875 416.1771272004347Q832.88934874161 419.1370544640911 831.7281465074063 421.66437697382844Q830.5897129444616 424.2144681548247 830.5897129444616 426.0131931842775L830.5897129444616 426.0131931842775Q830.5897129444616 428.47220968023817 833.0487294404222 428.47220968023817L833.0487294404222 428.47220968023817Q835.8265073340075 428.47220968023817 841.4048317924368 425.3529017177695L841.4048317924368 425.3529017177695Q847.461298347303 421.9148323576763 853.0396228057323 417.4977101334506Q858.6179472641617 413.05781923796604 861.7372552266303 410.4394220431931L861.7372552266303 410.4394220431931Q862.5569273919506 409.77913057668513 862.8756887895751 409.77913057668513L862.8756887895751 409.77913057668513Q863.535980256083 409.77913057668513 863.535980256083 410.5988027420053L863.535980256083 410.5988027420053Q863.535980256083 411.57785560613786 862.7163080907628 412.39752777145804L862.7163080907628 412.39752777145804Q861.2363444589346 413.718110704474 856.9786029335212 417.31556076337944Q852.7208614081078 420.9357794935438 847.233611634714 424.8747596213327Q841.7235931900614 428.79097107786265 836.4867988005154 431.2499875738234L836.4867988005154 431.2499875738234Q833.8684016057425 432.4111898080271 831.6598404936296 432.98040658949947Q829.4285107102579 433.5496233709718 827.6297856808051 433.5496233709718L827.6297856808051 433.5496233709718Q823.2126634565794 433.5496233709718 820.913027659431 431.02230086123444Q818.6133918622826 428.47220968023817 818.6133918622826 424.373848853637L818.6133918622826 424.373848853637Q818.6133918622826 422.73450452299653 819.1143026299783 420.9357794935438Q819.5924447264151 419.1370544640911 820.2527361929231 417.31556076337944L820.2527361929231 417.31556076337944L821.4139384271267 414.5377828697942Q817.1334282304543 419.77457725934016 812.875686705041 423.3037213044689Q808.6179451796276 426.8328653495977 804.360203654214 429.4512625443707L804.360203654214 429.4512625443707Q800.7399849240497 431.59151764270683 797.5523709478044 432.5705705068393Q794.364756971559 433.5496233709718 791.7235911055272 433.5496233709718ZM796.8237734675197 429.2918818455584L796.8237734675197 429.2918818455584Q799.7609320599172 429.2918818455584 805.3392565183466 425.7627378004296Q810.917580976776 422.23359375530083 818.2946304646581 414.85654426741877L818.2946304646581 414.85654426741877Q819.2736833287905 413.8774914032863 821.9831552085991 411.35016889354887Q824.6926270884077 408.8000777125526 827.7891663796174 405.6124637363073Q830.908474342086 402.402081088803 833.1170354541989 399.2144671125577Q835.3483652375706 396.00408446505344 835.3483652375706 393.88659803797617L835.3483652375706 393.88659803797617Q835.3483652375706 390.7672900755075 829.9294214779536 390.7672900755075L829.9294214779536 390.7672900755075Q825.1707691848444 390.7672900755075 818.5450858485059 394.45581481944856Q811.8966338409084 398.1443395633896 805.8401672860423 405.3620083524594L805.8401672860423 405.3620083524594Q799.601551361105 412.7390578403415 796.7326987824842 418.066926914923Q793.8638462038634 423.3947959895045 793.8638462038634 426.17257388308974L793.8638462038634 426.17257388308974Q793.8638462038634 429.2918818455584 796.8237734675197 429.2918818455584ZM885.3483673221048 433.5496233709718L885.3483673221048 433.5496233709718Q878.2900792318471 433.5496233709718 875.8310627358865 430.8401514911633Q873.3720462399258 428.1534482826136 873.3720462399258 424.8747596213327L873.3720462399258 424.8747596213327Q873.3720462399258 420.59424942466035 876.6507349012068 415.85836580281017L876.6507349012068 415.85836580281017Q878.6088406294717 413.05781923796604 881.0678571254324 409.5286751928372Q883.5268736213932 406.0222998189674 885.6671287197294 402.9029918564987Q887.8073838180655 399.78368389403005 888.6270559833856 398.4631009610141L888.6270559833856 398.4631009610141Q889.7654895463304 396.8237566303737 890.0159449301783 396.2545398489013Q890.2664003140262 395.6853230674289 890.2664003140262 395.02503160092095L890.2664003140262 395.02503160092095Q890.2664003140262 394.04597873678847 889.0368920660458 393.1352318864326Q887.8073838180655 392.24725370733574 885.0068372532213 392.24725370733574L885.0068372532213 392.24725370733574Q884.1871650879011 392.24725370733574 883.6179483064287 392.3155597211124Q883.0487315249563 392.406634406148 882.3884400584484 392.406634406148L882.3884400584484 392.406634406148Q881.0678571254324 392.406634406148 880.9084764266202 392.24725370733574L880.9084764266202 392.24725370733574L880.4303343301833 392.9075451738437Q875.8310627358865 398.9640117287098 870.5942683463406 404.79279157098705Q865.3347052855357 410.5988027420053 859.1188580318574 415.5168357339267L859.1188580318574 415.5168357339267Q858.4585665653494 416.0177465016224 858.117036496466 416.0177465016224L858.117036496466 416.0177465016224Q857.4795137012169 416.0177465016224 857.4795137012169 415.35745503511447L857.4795137012169 415.35745503511447Q857.4795137012169 414.0368721020985 859.4376194294819 412.39752777145804L859.4376194294819 412.39752777145804Q864.5150331202155 408.13978624604465 869.4330661121369 402.81191717146316Q874.3510991040582 397.4840480968817 878.2900792318471 391.58696224082775L878.2900792318471 391.58696224082775Q876.810115600019 390.60790937669526 876.810115600019 387.6479821130389L876.810115600019 387.6479821130389Q876.810115600019 383.23085988881314 879.6106621648631 378.1534461980795L879.6106621648631 378.1534461980795Q881.5687678931281 374.69260816672744 883.9367097040533 372.98495782231026Q886.3274201862373 371.25453880663423 888.12614521569 371.25453880663423L888.12614521569 371.25453880663423Q891.5642145757831 371.25453880663423 891.5642145757831 375.3528996332354L891.5642145757831 375.3528996332354Q891.5642145757831 377.97129682800835 889.6061088475182 381.91027695579726L889.6061088475182 381.91027695579726Q888.786436682198 383.89115135532114 886.395726200014 386.9193846327542Q884.0277843890888 389.9476179101873 881.7281485919405 391.2682008432032L881.7281485919405 391.2682008432032Q885.1662179520335 390.10699860899956 890.494087026615 389.6971625263394Q895.8219561011965 389.2873264436793 899.442174831361 389.2873264436793L899.442174831361 389.2873264436793Q901.5596612584382 389.2873264436793 904.6789692209069 390.51683469165965Q907.7982771833756 391.74634293964004 907.7982771833756 394.86565090210865L907.7982771833756 394.86565090210865Q907.7982771833756 397.00590600044484 905.8401714551105 399.4649224964055L905.8401714551105 399.4649224964055Q905.3392606874148 400.1024452916546 903.1990055890786 402.56146178761526Q901.0815191620014 405.020478283576 898.5314279810052 408.4813163149281Q896.0041054712677 411.91938567502126 893.8638503729317 415.35745503511447L893.8638503729317 415.35745503511447Q891.7235952745955 418.47676299758314 890.494087026615 421.09516019235605Q889.2645787786348 423.7135573871291 889.2645787786348 425.5122824165818L889.2645787786348 425.5122824165818Q889.2645787786348 428.1534482826136 892.2245060422911 428.1534482826136L892.2245060422911 428.1534482826136Q895.6625754023844 428.1534482826136 901.400280559626 424.8747596213327Q907.1379857168675 421.59607096005175 913.786437724465 416.4275825842825Q920.4121210608035 411.2590942085133 925.9904455192329 405.680769750084L925.9904455192329 405.680769750084Q926.6507369857409 405.020478283576 927.1516477534365 405.020478283576L927.1516477534365 405.020478283576Q927.7891705486857 405.020478283576 927.7891705486857 405.8401504488962L927.7891705486857 405.8401504488962Q927.7891705486857 406.8419719842876 926.9694983833654 407.6616441496078L926.9694983833654 407.6616441496078Q921.2317932261237 413.39934930684944 914.2645798209019 419.36474117668Q907.2973664156798 425.3529017177695 899.8520109140211 429.4512625443707Q892.3838867411034 433.5496233709718 885.3483673221048 433.5496233709718ZM919.1143067990465 434.2099148374798L919.1143067990465 434.2099148374798Q917.474962468406 434.2099148374798 915.1753266712576 433.4813173571951Q912.8756908741092 432.72995120565156 910.5760550769608 430.7718454773866L910.5760550769608 430.7718454773866Q912.3975487776725 428.3128289814259 915.74454345273 424.12339346978916Q919.1143067990465 419.9567266294113 922.8711375567642 414.85654426741877Q926.6507369857409 409.77913057668513 929.9294256470218 404.70171688595144L929.9294256470218 404.70171688595144Q927.3110284522488 407.3201140807244 924.1917204897802 410.28004134438083Q921.0724125273116 413.2171999367783 917.9531045648428 415.676216432739L917.9531045648428 415.676216432739Q917.3155817695938 416.1771272004347 916.6552903030858 416.1771272004347L916.6552903030858 416.1771272004347Q915.9949988365779 416.1771272004347 915.9949988365779 415.5168357339267L915.9949988365779 415.5168357339267Q915.9949988365779 414.5377828697942 917.474962468406 413.2171999367783L917.474962468406 413.2171999367783Q922.051465391444 409.1188391101772 927.5614838360966 404.0414254194435Q933.0487336094905 398.9640117287098 935.6671308042635 393.38568727028047L935.6671308042635 393.38568727028047Q936.4868029695837 391.4275815420155 936.4868029695837 389.788237211375L936.4868029695837 389.788237211375Q936.4868029695837 387.6479821130389 935.6671308042635 387.16984001660205L935.6671308042635 387.16984001660205Q935.0068393377554 386.66892924890635 935.0068393377554 385.8492570835861L935.0068393377554 385.8492570835861Q935.0068393377554 384.3692934517579 936.4868029695837 384.3692934517579L936.4868029695837 384.3692934517579Q937.3064751349038 384.3692934517579 937.8073859025995 384.7108235206414L937.8073859025995 384.7108235206414Q939.6061109320523 385.53049568596157 941.2454552626928 387.80736281185114Q942.8847995933331 390.10699860899956 942.8847995933331 394.86565090210865L942.8847995933331 394.86565090210865Q942.8847995933331 399.28277312633435 941.0860745638804 404.70171688595144L941.0860745638804 404.70171688595144Q942.8847995933331 401.92393899236623 944.683524622786 399.37384781136996Q946.4822496522387 396.8237566303737 948.1215939828792 394.7062702032964L948.1215939828792 394.7062702032964Q951.40028264416 390.448528677883 955.088807388101 388.2171988945112Q958.7773321320421 386.0086377823984 961.5778786968863 386.0086377823984L961.5778786968863 386.0086377823984Q966.1543816199242 386.0086377823984 966.1543816199242 391.2682008432032L966.1543816199242 391.2682008432032Q966.1543816199242 394.2053594356007 964.1962758916593 398.9640117287098L964.1962758916593 398.9640117287098Q962.3975508622066 403.06237255531096 959.2782428997378 408.8000777125526L959.2782428997378 408.8000777125526Q962.0560207933231 405.020478283576 964.9248733719439 401.5824089234828Q967.7937259505647 398.1443395633896 969.9339810489009 395.8447037662412L969.9339810489009 395.8447037662412Q974.6926333420099 391.08605147313204 979.0186808812 388.9685650460548Q983.367497091649 386.82830994771865 986.9877158218135 386.82830994771865L986.9877158218135 386.82830994771865Q991.2454573472269 386.82830994771865 993.7727798569642 389.2190204299026Q996.3228710379605 391.58696224082775 996.3228710379605 395.6853230674289L996.3228710379605 395.6853230674289Q996.3228710379605 398.6452503310853 994.8429074061323 402.0833196911785L994.8429074061323 402.0833196911785Q993.8638545419999 404.0414254194435 991.5642187448515 407.3201140807244Q989.264582947703 410.5988027420053 986.64618575293 414.2190214721697Q984.027788558157 417.81647153107514 982.2290635287043 420.77639879473156Q980.4303384992515 423.7135573871291 980.4303384992515 425.03414032014496L980.4303384992515 425.03414032014496Q980.4303384992515 426.67348465078544 982.2290635287043 426.67348465078544L982.2290635287043 426.67348465078544Q985.0068414222895 426.67348465078544 988.6270601524539 424.2144681548247L988.6270601524539 424.2144681548247Q992.8848016778672 421.25454089116835 997.8028346697886 417.1561800645672Q1002.7208676617101 413.05781923796604 1005.8401756241788 410.4394220431931L1005.8401756241788 410.4394220431931Q1006.4776984194278 409.77913057668513 1006.9786091871235 409.77913057668513L1006.9786091871235 409.77913057668513Q1007.6389006536315 409.77913057668513 1007.6389006536315 410.5988027420053L1007.6389006536315 410.5988027420053Q1007.6389006536315 411.57785560613786 1006.8192284883112 412.39752777145804L1006.8192284883112 412.39752777145804Q1004.3602119923505 414.69716356860647 1000.5123065495973 418.1352329286997Q996.641632435585 421.59607096005175 992.2245102113593 425.03414032014496Q987.8073879871338 428.47220968023817 983.5268777904614 430.8401514911633Q979.2691362650479 433.23086197334726 975.990447603767 433.23086197334726L975.990447603767 433.23086197334726Q971.7327060783535 433.23086197334726 969.023234198545 431.2499875738234Q966.3137623187365 429.2918818455584 966.3137623187365 425.03414032014496L966.3137623187365 425.03414032014496Q966.3137623187365 422.23359375530083 967.4749645529402 418.7955243952077L967.4749645529402 418.7955243952077Q968.6133981158849 415.35745503511447 972.0514674759781 410.6898774270409Q975.5123055073302 406.0222998189674 979.4285169638601 401.51410290970614Q983.367497091649 397.00590600044484 985.9858942864221 394.04597873678847L985.9858942864221 394.04597873678847Q987.9667686859459 391.74634293964004 987.9667686859459 390.60790937669526L987.9667686859459 390.60790937669526Q987.9667686859459 389.127945744867 985.9858942864221 389.127945744867L985.9858942864221 389.127945744867Q983.7090271605325 389.127945744867 979.2008302512713 391.58696224082775Q974.6926333420099 394.04597873678847 969.5924509800175 399.4649224964055L969.5924509800175 399.4649224964055Q966.3137623187365 402.9029918564987 962.9667676436788 408.13978624604465Q959.5970042973623 413.39934930684944 956.9786071025894 418.72721838143093Q954.3602099078164 424.0550874560125 952.8802462759883 428.1534482826136L952.8802462759883 428.1534482826136Q951.7418127130435 431.09060687501113 948.6225047505748 431.09060687501113L948.6225047505748 431.09060687501113Q946.9831604199344 431.09060687501113 945.5942714731418 430.11155401087865Q944.1826138550903 429.1325011467461 944.8429053215982 427.97129891254247L944.8429053215982 427.97129891254247Q948.9412661481995 420.77639879473156 952.9713209610238 413.718110704474Q956.9786071025894 406.65982261421647 960.2572957638704 398.9640117287098L960.2572957638704 398.9640117287098Q962.5569315610187 393.88659803797617 962.5569315610187 391.2682008432032L962.5569315610187 391.2682008432032Q962.5569315610187 388.9685650460548 960.5760571614949 388.9685650460548L960.5760571614949 388.9685650460548Q958.6179514332299 388.9685650460548 955.2481880869134 391.3365068569799Q951.9011934118557 393.72721733916393 949.4421769158951 396.66437593156144L949.4421769158951 396.66437593156144Q945.5031967881062 401.26364752585823 941.9057467292007 406.9102779980643Q938.2855279990364 412.57967714152926 935.6671308042635 417.1561800645672L935.6671308042635 417.1561800645672Q933.5268757059273 420.59424942466035 931.2500085800377 423.8729380859413Q928.9503727828893 427.1516267472222 926.1498262180452 430.11155401087865L926.1498262180452 430.11155401087865Q922.5523761591396 434.2099148374798 919.1143067990465 434.2099148374798ZM1073.0532931804378 472.8938873063429L1073.0532931804378 472.8938873063429Q1065.0159522260478 472.8938873063429 1058.2081195196379 470.5259454954178Q1051.4002868132284 468.1352350132338 1046.892089903967 462.89844062368786Q1042.3838929947058 457.6616462341419 1041.0860787329489 449.1233945120562L1041.0860787329489 449.1233945120562L1041.0860787329489 448.64525241561944Q1041.0860787329489 447.8255802502992 1041.5642208293855 447.8255802502992L1041.5642208293855 447.8255802502992Q1042.3838929947058 447.8255802502992 1042.7254230635892 448.9640138132439L1042.7254230635892 448.9640138132439Q1044.524148093042 458.299169029391 1051.7418168821116 464.2190235567038Q1058.9367169999225 470.1161094127577 1068.2946408873286 470.1161094127577L1068.2946408873286 470.1161094127577Q1074.8520182098905 470.1161094127577 1080.9084847647566 467.40663753294916Q1086.9877199908817 464.6971656531406 1092.38389507924 460.4394241277272Q1097.802838838857 456.1816826023138 1102.4704164469304 451.33195562416904Q1107.1379940550041 446.50499731728326 1111.0769741827928 442.4066364906821L1111.0769741827928 442.4066364906821Q1120.2527487001275 432.2518091092148 1127.7208728730454 421.25454089116835Q1135.1662283747041 410.28004134438083 1139.4467385713765 401.104266827046L1139.4467385713765 401.104266827046Q1133.868414112947 406.8419719842876 1125.7399984735214 412.7390578403415Q1117.6343515053547 418.6361436963954 1107.9576662203242 424.0550874560125Q1098.2809809352937 429.4512625443707 1087.7163174711663 433.6406980560074Q1077.1516540070388 437.80736489638525 1066.6552965566882 440.1070006935337L1066.6552965566882 440.1070006935337Q1061.3957334958832 441.2682029277373 1056.4777005039618 441.8374197092097Q1051.5596675120405 442.4066364906821 1047.1425452878148 442.4066364906821L1047.1425452878148 442.4066364906821Q1034.0277906426911 442.4066364906821 1024.8520161253564 438.1488949652687Q1015.6762416080214 433.89115343985526 1010.8265146298768 426.51410395197314Q1005.999556322991 419.1370544640911 1005.999556322991 409.77913057668513L1005.999556322991 409.77913057668513Q1005.999556322991 400.6033560593503 1010.7582086161001 390.10699860899956Q1015.4940922379503 379.61064115864883 1025.5123075918643 368.79552231067356L1025.5123075918643 368.79552231067356Q1032.8893570797463 360.7581813562835 1042.0651315970813 353.79096795106153Q1051.240906114416 346.82375454583956 1060.826516714411 341.17712407363354Q1070.412127314406 335.5304936014275 1079.6789765167762 331.5915134736386Q1088.9458257191468 327.65253334584975 1096.6416366046533 325.85380831639696L1096.6416366046533 325.85380831639696Q1100.9221468013257 324.8747554522645 1105.3392690255514 324.28276999953323Q1109.756391249777 323.71355321806084 1113.8547520763782 323.71355321806084L1113.8547520763782 323.71355321806084Q1120.9130401666357 323.71355321806084 1126.7418200089128 325.51227824751356Q1132.547831179931 327.33377194822515 1136.1680499100955 331.2499834047552Q1139.765499969001 335.18896353254405 1139.765499969001 341.5869601562936L1139.765499969001 341.5869601562936Q1139.765499969001 345.1844102151991 1138.5359917210208 348.6452482465512Q1137.3064834730403 352.0833176066444 1136.48681130772 353.88204263609714L1136.48681130772 353.88204263609714Q1135.9859005400244 354.8610955002296 1135.5077584435876 354.8610955002296L1135.5077584435876 354.8610955002296Q1135.1662283747041 354.8610955002296 1135.006847675892 354.2008040337216Q1134.8474669770796 353.56328123847254 1135.1662283747041 352.9029897719646L1135.1662283747041 352.9029897719646Q1136.6461920065324 349.6243011106837 1136.6461920065324 347.32466531353526L1136.6461920065324 347.32466531353526Q1136.6461920065324 343.2263044869341 1133.1170479614036 341.3365047724458Q1129.6106725875338 339.4467050579575 1123.5314373614087 339.4467050579575L1123.5314373614087 339.4467050579575Q1116.6552986412223 339.4467050579575 1107.2973747538163 341.5869601562936Q1097.9622195376692 343.72721525462975 1087.5569367723542 347.48404601234756Q1077.1516540070388 351.2636454413241 1066.8146772555003 356.18167843324557Q1056.4777005039618 361.0997114251669 1047.3930006716628 366.9057225961852Q1038.2855321681045 372.7345024384624 1031.7281548455426 378.7909689933286L1031.7281548455426 378.7909689933286Q1020.9130359975675 388.80918434724254 1015.9039283206105 397.57512278191723Q1010.9175893149124 406.3410612165919 1010.9175893149124 413.2171999367783L1010.9175893149124 413.2171999367783Q1010.9175893149124 423.5541766883168 1020.594274599943 429.38295653059396Q1030.2481912137146 435.1889677016123 1046.6416345201192 435.1889677016123L1046.6416345201192 435.1889677016123Q1050.9221447167915 435.1889677016123 1055.4303416260527 434.7791316189522Q1059.938538535314 434.36929553629204 1064.8565715272355 433.5496233709718L1064.8565715272355 433.5496233709718Q1079.109759735304 430.93122617619883 1093.8638587110681 425.2845957039928Q1108.6179576868321 419.61519656052786 1121.4139509343315 411.41847490732556Q1134.1871755105717 403.22175325412326 1142.5432778625864 393.54506796909277L1142.5432778625864 393.54506796909277Q1143.203569329094 391.74634293964004 1143.70448009679 390.03869259522287Q1144.1826221932267 388.30827357954684 1144.1826221932267 386.66892924890635L1144.1826221932267 386.66892924890635Q1144.1826221932267 384.5286741505702 1142.2245164649617 384.5286741505702L1142.2245164649617 384.5286741505702Q1139.6061192701886 384.5286741505702 1136.48681130772 387.16984001660205L1136.48681130772 387.16984001660205Q1135.1662283747041 388.30827357954684 1134.0277948117593 388.30827357954684L1134.0277948117593 388.30827357954684Q1133.2081226464393 388.30827357954684 1133.2081226464393 387.4886014142266L1133.2081226464393 387.4886014142266Q1133.2081226464393 386.16801848121065 1134.8474669770796 384.7108235206414L1134.8474669770796 384.7108235206414Q1140.2664107366968 380.7718433928525 1145.3438244274303 380.7718433928525L1145.3438244274303 380.7718433928525Q1149.6015659528439 380.7718433928525 1152.2199631476167 383.70900198525L1152.2199631476167 383.70900198525Q1153.8593074782573 385.53049568596157 1153.8593074782573 389.2873264436793L1153.8593074782573 389.2873264436793Q1153.8593074782573 394.04597873678847 1151.1498355984486 400.76273675816253Q1148.4631323898989 407.4794947795367 1144.2736968782624 414.9476189524544Q1140.0842613666255 422.415743125372 1135.2573030597398 429.38295653059396Q1130.430344752854 436.3501699358159 1126.1498345561815 441.9057257229864Q1121.8920930307681 447.48405018141574 1119.273695835995 450.28459674625987L1119.273695835995 450.28459674625987Q1110.2573020174727 459.77913266121925 1098.212674921517 466.33650998378107Q1086.1680478255614 472.8938873063429 1073.0532931804378 472.8938873063429ZM1203.3811674663546 439.78823929590914L1203.3811674663546 439.78823929590914Q1201.2409123680184 438.9685671305889 1199.1917319547179 436.8283120322527Q1197.142551541417 434.7108256051755 1197.142551541417 429.4512625443707L1197.142551541417 429.4512625443707Q1197.142551541417 425.03414032014496 1198.6225151732456 420.18441334200025Q1200.1024788050736 415.35745503511447 1202.3793459309632 410.5988027420053L1202.3793459309632 410.5988027420053Q1198.1216044055498 416.0177465016224 1193.1352653998515 421.25454089116835Q1188.1261577228947 426.51410395197314 1183.1170500459377 429.86109862703074Q1178.1307110402397 433.23086197334726 1173.8729695148263 433.23086197334726L1173.8729695148263 433.23086197334726Q1170.2527507846617 433.23086197334726 1167.8848089737367 431.2499875738234Q1165.4940984915527 429.2918818455584 1165.4940984915527 425.19352101895726L1165.4940984915527 425.19352101895726Q1165.4940984915527 422.23359375530083 1166.6553007257564 418.7955243952077L1166.6553007257564 418.7955243952077Q1167.7937342887012 415.35745503511447 1170.7536615523575 411.099713509701Q1173.690820144755 406.8419719842876 1177.2199641898837 402.65253647265087Q1180.7491082350125 398.4631009610141 1183.3675054297855 395.52594236861665L1183.3675054297855 395.52594236861665Q1185.1662304592382 393.38568727028047 1185.1662304592382 392.08787300852345L1185.1662304592382 392.08787300852345Q1185.1662304592382 390.448528677883 1183.3675054297855 390.448528677883L1183.3675054297855 390.448528677883Q1181.4093997015207 390.448528677883 1177.7891809713562 393.06692587265593L1177.7891809713562 393.06692587265593Q1174.0323502136384 395.8447037662412 1169.7746086882248 399.87475857906566Q1165.4940984915527 403.8820447206312 1161.7372677338349 407.57056946457226Q1157.9576683048585 411.2590942085133 1155.3392711100853 413.39934930684944L1155.3392711100853 413.39934930684944Q1154.8383603423897 413.8774914032863 1154.360218245953 413.8774914032863L1154.360218245953 413.8774914032863Q1153.5405460806328 413.8774914032863 1153.5405460806328 412.89843853915374L1153.5405460806328 412.89843853915374Q1153.5405460806328 412.07876637383356 1155.0205097124608 410.7581834408176L1155.0205097124608 410.7581834408176Q1162.2154098302717 404.5423361871392 1166.974062123381 399.37384781136996Q1171.7327144164901 394.2053594356007 1176.3319860107867 390.60790937669526L1176.3319860107867 390.60790937669526Q1178.7910025067476 388.6270349771714 1181.4093997015207 387.73905679807444Q1184.0277968962937 386.82830994771865 1186.327432693442 386.82830994771865L1186.327432693442 386.82830994771865Q1190.266412821231 386.82830994771865 1192.884810016004 389.127945744867Q1195.5032072107767 391.4275815420155 1195.5032072107767 395.52594236861665L1195.5032072107767 395.52594236861665Q1195.5032072107767 398.6452503310853 1193.8638628801364 402.0833196911785L1193.8638628801364 402.0833196911785Q1192.0651378506836 406.1816805177796 1189.0369045732505 410.1889666593452Q1185.9859026245585 414.2190214721697 1183.2081247309734 417.97585222988744L1183.2081247309734 417.97585222988744Q1181.0678696326372 421.09516019235605 1180.0888167685046 423.0532659206211Q1179.109763904372 425.03414032014496 1179.109763904372 426.0131931842775L1179.109763904372 426.0131931842775Q1179.109763904372 427.3337761172934 1180.430346837388 427.3337761172934L1180.430346837388 427.3337761172934Q1181.728161099145 427.3337761172934 1184.1871775951058 425.8538124854652Q1186.6461940910665 424.373848853637 1189.2645912858393 422.0742130564886L1189.2645912858393 422.0742130564886Q1191.0860849865512 420.4348687258481 1192.4749739333436 419.04597977905553Q1193.8638628801364 417.6570908322629 1194.524154346644 416.9967993657549L1194.524154346644 416.9967993657549Q1198.2809851043621 413.05781923796604 1202.0605845333387 408.5496223287048Q1205.8401839623152 404.0414254194435 1208.6179618559004 400.28459466172575L1208.6179618559004 400.28459466172575Q1210.7582169542366 397.4840480968817 1211.987725202217 396.00408446505344Q1213.2172334501972 394.54688950448417 1214.6744284107667 392.9075451738437L1214.6744284107667 392.9075451738437Q1217.4749749756106 389.788237211375 1220.5942829380792 389.6288565125627L1220.5942829380792 389.6288565125627Q1222.3930079675322 389.6288565125627 1224.7609497784572 390.3574539928474Q1227.1516602606412 391.08605147313204 1229.4285273865307 393.2263065714682L1229.4285273865307 393.2263065714682Q1227.7891830558904 395.52594236861665 1224.6015690796448 399.5332285101822Q1221.4139551033995 403.56328332300666 1217.7254303594586 408.39024162989244Q1214.0369056155173 413.2171999367783 1210.667142269201 418.31738229877084Q1207.2973789228845 423.3947959895045 1205.179892495807 427.8119182137302Q1203.039637397471 432.2518091092148 1203.039637397471 435.5304977704957L1203.039637397471 435.5304977704957Q1203.039637397471 437.80736489638525 1204.360220330487 439.1279478294012L1204.360220330487 439.1279478294012Q1205.020511796995 439.78823929590914 1204.360220330487 439.8565453096858Q1203.699928863979 439.9476199947214 1203.3811674663546 439.78823929590914ZM1238.6270705751244 433.5496233709718L1238.6270705751244 433.5496233709718Q1233.5268882131318 433.5496233709718 1230.7491103195466 430.36200939472644Q1227.9713324259615 427.1516267472222 1227.9713324259615 422.0742130564886L1227.9713324259615 422.0742130564886Q1227.9713324259615 417.31556076337944 1230.498654935699 411.57785560613786Q1233.0487461166952 405.8401504488962 1238.6270705751244 399.94306459284235L1238.6270705751244 399.94306459284235Q1244.364775732366 393.72721733916393 1252.8802587831929 389.8565432251517Q1261.3957418340196 386.0086377823984 1269.1143213907853 386.0086377823984L1269.1143213907853 386.0086377823984Q1275.3301686444638 386.0086377823984 1279.7700595399483 388.7181096622069Q1284.187181764174 391.4275815420155 1285.667145396002 395.52594236861665L1285.667145396002 395.52594236861665Q1287.4658704254548 395.52594236861665 1290.1753423052635 396.50499523274914Q1292.884814185072 397.4840480968817 1292.884814185072 400.1024452916546L1292.884814185072 400.1024452916546Q1292.884814185072 401.92393899236623 1291.0860891556194 404.20080611825574L1291.0860891556194 404.20080611825574Q1289.9248869214157 405.8401504488962 1287.0560343427946 409.1188391101772Q1284.187181764174 412.39752777145804 1281.7281652682132 416.1771272004347L1281.7281652682132 416.1771272004347Q1279.7700595399483 419.1370544640911 1278.6088573057446 421.66437697382844Q1277.4704237428 424.2144681548247 1277.4704237428 426.0131931842775L1277.4704237428 426.0131931842775Q1277.4704237428 428.47220968023817 1279.9294402387604 428.47220968023817L1279.9294402387604 428.47220968023817Q1282.7072181323458 428.47220968023817 1288.285542590775 425.3529017177695L1288.285542590775 425.3529017177695Q1294.3647778169002 421.9148323576763 1299.9203336040707 417.4977101334506Q1305.4986580625 413.05781923796604 1308.6179660249686 410.4394220431931L1308.6179660249686 410.4394220431931Q1309.437638190289 409.77913057668513 1309.7563995879134 409.77913057668513L1309.7563995879134 409.77913057668513Q1310.4166910544213 409.77913057668513 1310.4166910544213 410.5988027420053L1310.4166910544213 410.5988027420053Q1310.4166910544213 411.57785560613786 1309.597018889101 412.39752777145804L1309.597018889101 412.39752777145804Q1308.117055257273 413.718110704474 1303.8593137318594 417.31556076337944Q1299.601572206446 420.9357794935438 1294.1143224330524 424.8747596213327Q1288.6270726596586 428.79097107786265 1283.3675095988538 431.2499875738234L1283.3675095988538 431.2499875738234Q1280.7491124040807 432.4111898080271 1278.5405512919679 432.98040658949947Q1276.331990179855 433.5496233709718 1274.5104964791435 433.5496233709718L1274.5104964791435 433.5496233709718Q1270.0933742549178 433.5496233709718 1267.7937384577695 431.02230086123444Q1265.494102660621 428.47220968023817 1265.494102660621 424.373848853637L1265.494102660621 424.373848853637Q1265.494102660621 422.73450452299653 1265.9950134283167 420.9357794935438Q1266.4959241960123 419.1370544640911 1267.1334469912613 417.31556076337944L1267.1334469912613 417.31556076337944L1268.294649225465 414.5377828697942Q1264.0369077000516 419.77457725934016 1259.7563975033793 423.3037213044689Q1255.4986559779659 426.8328653495977 1251.2409144525525 429.4512625443707L1251.2409144525525 429.4512625443707Q1247.6434643936468 431.59151764270683 1244.4330817461428 432.5705705068393Q1241.2454677698975 433.5496233709718 1238.6270705751244 433.5496233709718ZM1243.7044842658581 429.2918818455584L1243.7044842658581 429.2918818455584Q1246.6416428582556 429.2918818455584 1252.219967316685 425.7627378004296Q1257.7982917751144 422.23359375530083 1265.1753412629964 414.85654426741877L1265.1753412629964 414.85654426741877Q1266.1543941271289 413.8774914032863 1268.8638660069373 411.35016889354887Q1271.5733378867458 408.8000777125526 1274.6926458492146 405.6124637363073Q1277.7891851404243 402.402081088803 1280.0205149237963 399.2144671125577Q1282.229076035909 396.00408446505344 1282.229076035909 393.88659803797617L1282.229076035909 393.88659803797617Q1282.229076035909 390.7672900755075 1276.8101322762918 390.7672900755075L1276.8101322762918 390.7672900755075Q1272.0514799831828 390.7672900755075 1265.4257966468442 394.45581481944856Q1258.7773446392468 398.1443395633896 1252.7208780843807 405.3620083524594L1252.7208780843807 405.3620083524594Q1246.4822621594435 412.7390578403415 1243.6134095808225 418.066926914923Q1240.7445570022019 423.3947959895045 1240.7445570022019 426.17257388308974L1240.7445570022019 426.17257388308974Q1240.7445570022019 429.2918818455584 1243.7044842658581 429.2918818455584ZM1332.2290781204433 433.5496233709718L1332.2290781204433 433.5496233709718Q1325.1707900301856 433.5496233709718 1322.711773534225 430.8401514911633Q1320.2527570382642 428.1534482826136 1320.2527570382642 424.8747596213327L1320.2527570382642 424.8747596213327Q1320.2527570382642 420.59424942466035 1323.5314456995452 415.85836580281017L1323.5314456995452 415.85836580281017Q1325.512320099069 413.05781923796604 1327.9713365950297 409.5286751928372Q1330.4303530909904 406.0222998189674 1332.5478395180676 402.9029918564987Q1334.6880946164038 399.78368389403005 1335.507766781724 398.4631009610141L1335.507766781724 398.4631009610141Q1336.6462003446688 396.8237566303737 1336.8966557285166 396.2545398489013Q1337.1471111123644 395.6853230674289 1337.1471111123644 395.02503160092095L1337.1471111123644 395.02503160092095Q1337.1471111123644 394.04597873678847 1335.9176028643842 393.1352318864326Q1334.6880946164038 392.24725370733574 1331.8875480515596 392.24725370733574L1331.8875480515596 392.24725370733574Q1331.0678758862396 392.24725370733574 1330.4986591047673 392.3155597211124Q1329.9294423232946 392.406634406148 1329.2691508567868 392.406634406148L1329.2691508567868 392.406634406148Q1327.9713365950297 392.406634406148 1327.7891872249586 392.24725370733574L1327.7891872249586 392.24725370733574L1327.3110451285215 392.9075451738437Q1322.711773534225 398.9640117287098 1317.4749791446789 404.79279157098705Q1312.215416083874 410.5988027420053 1305.9995688301956 415.5168357339267L1305.9995688301956 415.5168357339267Q1305.3392773636879 416.0177465016224 1305.0205159660632 416.0177465016224L1305.0205159660632 416.0177465016224Q1304.3602244995552 416.0177465016224 1304.3602244995552 415.35745503511447L1304.3602244995552 415.35745503511447Q1304.3602244995552 414.0368721020985 1306.3183302278203 412.39752777145804L1306.3183302278203 412.39752777145804Q1311.3957439185538 408.13978624604465 1316.3137769104753 402.81191717146316Q1321.2318099023967 397.4840480968817 1325.1707900301856 391.58696224082775L1325.1707900301856 391.58696224082775Q1323.6908263983573 390.60790937669526 1323.6908263983573 387.6479821130389L1323.6908263983573 387.6479821130389Q1323.6908263983573 383.23085988881314 1326.4913729632015 378.1534461980795L1326.4913729632015 378.1534461980795Q1328.4494786914665 374.69260816672744 1330.8401891736505 372.98495782231026Q1333.2081309845757 371.25453880663423 1335.0068560140282 371.25453880663423L1335.0068560140282 371.25453880663423Q1338.4449253741213 371.25453880663423 1338.4449253741213 375.3528996332354L1338.4449253741213 375.3528996332354Q1338.4449253741213 377.97129682800835 1336.4868196458565 381.91027695579726L1336.4868196458565 381.91027695579726Q1335.6671474805362 383.89115135532114 1333.2992056696112 386.9193846327542Q1330.908495187427 389.9476179101873 1328.6088593902787 391.2682008432032L1328.6088593902787 391.2682008432032Q1332.069697421631 390.10699860899956 1337.3975664962122 389.6971625263394Q1342.7254355707937 389.2873264436793 1346.3228856296992 389.2873264436793L1346.3228856296992 389.2873264436793Q1348.4631407280356 389.2873264436793 1351.5596800192452 390.51683469165965Q1354.6789879817138 391.74634293964004 1354.6789879817138 394.86565090210865L1354.6789879817138 394.86565090210865Q1354.6789879817138 397.00590600044484 1352.720882253449 399.4649224964055L1352.720882253449 399.4649224964055Q1352.2199714857531 400.1024452916546 1350.102485058676 402.56146178761526Q1347.9622299603398 405.020478283576 1345.4121387793434 408.4813163149281Q1342.8848162696063 411.91938567502126 1340.74456117127 415.35745503511447L1340.74456117127 415.35745503511447Q1338.6270747441927 418.47676299758314 1337.3975664962122 421.09516019235605Q1336.1680582482318 423.7135573871291 1336.1680582482318 425.5122824165818L1336.1680582482318 425.5122824165818Q1336.1680582482318 428.1534482826136 1339.1052168406295 428.1534482826136L1339.1052168406295 428.1534482826136Q1342.5432862007228 428.1534482826136 1348.2809913579645 424.8747596213327Q1354.018696515206 421.59607096005175 1360.6671485228035 416.4275825842825Q1367.3156005304008 411.2590942085133 1372.8711563175711 405.680769750084L1372.8711563175711 405.680769750084Q1373.531447784079 405.020478283576 1374.032358551775 405.020478283576L1374.032358551775 405.020478283576Q1374.6926500182828 405.020478283576 1374.6926500182828 405.8401504488962L1374.6926500182828 405.8401504488962Q1374.6926500182828 406.8419719842876 1373.8729778529628 407.6616441496078L1373.8729778529628 407.6616441496078Q1368.135272695721 413.39934930684944 1361.168059290499 419.36474117668Q1354.200845885277 425.3529017177695 1346.7327217123595 429.4512625443707Q1339.2645975394416 433.5496233709718 1332.2290781204433 433.5496233709718ZM1413.0350924182626 447.8255802502992L1413.0350924182626 447.8255802502992Q1410.4166952234896 445.52594445315077 1409.1871869755093 441.99680040802195Q1407.9576787275291 438.4676563628932 1407.9576787275291 434.0505341386675L1407.9576787275291 434.0505341386675Q1407.9576787275291 429.95217331206635 1408.8684255778846 425.3529017177695Q1409.7564037569816 420.77639879473156 1411.2363673888099 415.676216432739L1411.2363673888099 415.676216432739Q1408.1170594263413 419.61519656052786 1404.2691539835878 423.7135573871291Q1400.4212485408345 427.8119182137302 1396.9831791807414 430.7718454773866L1396.9831791807414 430.7718454773866Q1390.084271789296 436.3501699358159 1382.0696995061649 436.3501699358159L1382.0696995061649 436.3501699358159Q1375.9904642800398 436.3501699358159 1371.7327227546266 432.47949582180377Q1367.474981229213 428.6315903790504 1367.474981229213 420.4348687258481L1367.474981229213 420.4348687258481Q1367.474981229213 418.31738229877084 1367.8848173118731 416.33650789924695Q1368.2946533945333 414.378402170982 1368.9549448610414 412.39752777145804L1368.9549448610414 412.39752777145804Q1367.9531233256498 413.2171999367783 1367.065145146553 414.0368721020985Q1366.154398296197 414.85654426741877 1365.3347261308768 415.5168357339267L1365.3347261308768 415.5168357339267Q1364.6744346643688 416.0177465016224 1364.0369118691199 416.0177465016224L1364.0369118691199 416.0177465016224Q1363.2172397037996 416.0177465016224 1363.2172397037996 415.19807433630217L1363.2172397037996 415.19807433630217Q1363.2172397037996 414.2190214721697 1364.8565840344402 412.89843853915374L1364.8565840344402 412.89843853915374Q1366.9740704615174 411.099713509701 1369.6835423413258 407.9804055472324Q1372.3930142211343 404.8610975847637 1375.6717028824155 401.26364752585823L1375.6717028824155 401.26364752585823Q1381.409408039657 394.86565090210865 1389.674435706636 390.9266707743198Q1397.9622320448739 386.9876906465309 1405.9995729992638 386.9876906465309L1405.9995729992638 386.9876906465309Q1412.8757117194502 386.9876906465309 1416.0860943669545 389.4467071424916Q1419.2737083431998 391.9057236384523 1419.2737083431998 395.36656166980436L1419.2737083431998 395.36656166980436Q1423.372069169801 386.66892924890635 1427.8802660790625 378.7226629795519Q1432.3884629883237 370.77639671019745 1436.3957491298893 364.69716148407235Q1440.4258039427136 358.64069492920623 1443.0442011374867 355.6807676655498L1443.0442011374867 355.6807676655498Q1444.8429261669394 353.56328123847254 1447.5523980467478 352.56145970308114Q1450.2618699265565 351.5824068389487 1453.039647820142 351.5824068389487L1453.039647820142 351.5824068389487Q1455.8401943849858 351.5824068389487 1458.4585915797588 352.4020790042689Q1461.0769887745316 353.22175116958914 1463.0350945027967 355.02047619904187L1463.0350945027967 355.02047619904187Q1461.395750172156 356.02229773443327 1457.8893747982866 359.7108224783743Q1454.3602307531576 363.3993472223153 1449.8520338438962 368.79552231067356Q1445.343836934635 374.21446607029065 1440.4941099564903 380.430313323969Q1435.6671516496044 386.66892924890635 1431.4094101241913 392.9075451738437L1431.4094101241913 392.9075451738437Q1426.3319964334573 400.28459466172575 1421.8237995241961 408.8000777125526Q1417.315602614935 417.31556076337944 1414.5150560500908 425.2845957039928Q1411.7372781565055 433.23086197334726 1411.7372781565055 439.28732852821344L1411.7372781565055 439.28732852821344Q1411.7372781565055 444.20536152013483 1413.8547645835827 446.8237587149078L1413.8547645835827 446.8237587149078Q1414.3556753512785 447.48405018141574 1413.8547645835827 447.7345055652636Q1413.376622487146 447.98496094911144 1413.0350924182626 447.8255802502992ZM1387.1471131968988 430.7718454773866L1387.1471131968988 430.7718454773866Q1390.084271789296 430.7718454773866 1395.0023047812174 427.74361219995353Q1399.9203377731387 424.69261025126156 1407.1380065622086 417.31556076337944L1407.1380065622086 417.31556076337944Q1409.4376423593571 415.0386936374899 1410.8265313061497 413.3082746218139Q1412.2154202529423 411.57785560613786 1413.2172417883337 409.9385112754974L1413.2172417883337 409.9385112754974Q1414.036913953654 407.6616441496078 1414.856586118974 405.5213890512717Q1415.6762582842944 403.38113395293556 1416.655311148427 401.26364752585823L1416.655311148427 401.26364752585823Q1415.6762582842944 401.92393899236623 1415.1753475165988 401.92393899236623L1415.1753475165988 401.92393899236623Q1413.8547645835827 401.92393899236623 1413.8547645835827 400.44397536053805L1413.8547645835827 400.44397536053805Q1413.8547645835827 399.78368389403005 1414.3556753512785 398.80463102989756L1414.3556753512785 398.80463102989756Q1415.9950196819188 396.00408446505344 1415.9950196819188 393.88659803797617L1415.9950196819188 393.88659803797617Q1415.9950196819188 390.448528677883 1412.0560395541302 390.448528677883L1412.0560395541302 390.448528677883Q1409.9385531270527 390.448528677883 1406.3183343968885 391.74634293964004L1406.3183343968885 391.74634293964004Q1402.2199735702875 393.38568727028047 1397.8711573598384 396.755450616597Q1393.5451098206481 400.1024452916546 1389.8565850767072 404.6106422009159Q1386.1680603327661 409.1188391101772 1383.9367305493943 413.8774914032863Q1381.7281694372816 418.6361436963954 1381.7281694372816 422.8938852218088L1381.7281694372816 422.8938852218088Q1381.7281694372816 426.0131931842775 1382.9576776852618 428.38113499520256Q1384.1871859332423 430.7718454773866 1387.1471131968988 430.7718454773866Z " fill="green" transform="matrix(0.5980718024914596,0,0,0.5980718024914596,0,62.0308829987807)"/></g></svg>