<?xml version="1.0" standalone="no"?>
<!DOCTYPE svg PUBLIC "-//W3C//DTD SVG 20010904//EN"
 "http://www.w3.org/TR/2001/REC-SVG-20010904/DTD/svg10.dtd">
<svg version="1.0" xmlns="http://www.w3.org/2000/svg"
 width="500.000000pt" height="500.000000pt" viewBox="0 0 500.000000 500.000000"
 preserveAspectRatio="xMidYMid meet">

<g transform="translate(0.000000,500.000000) scale(0.100000,-0.100000)"
fill="#000000" stroke="none">
<path d="M0 2500 l0 -2500 2500 0 2500 0 0 2500 0 2500 -2500 0 -2500 0 0
-2500z m1415 968 c3 -7 -23 -111 -57 -232 l-63 -218 -105 -44 -105 -43 -182
-1 c-110 0 -184 4 -188 10 -5 8 128 511 142 533 2 4 128 7 279 7 210 0 276 -3
279 -12z m313 -253 c2 -17 -23 -30 -175 -92 -97 -40 -178 -71 -180 -70 -3 4
42 162 51 175 5 9 48 12 154 10 138 -3 147 -4 150 -23z m-879 -379 c-6 -5
-178 -76 -185 -76 -9 0 6 52 18 67 7 9 39 13 91 13 44 0 78 -2 76 -4z"/>
</g>
</svg>
